<?xml version="1.0" encoding="UTF-8" standalone="no"?>
<!-- Created with Inkscape (http://www.inkscape.org/) -->

<svg
   width="2.5in"
   height="1.6in"
   viewBox="0 0 63.5 40.640001"
   version="1.1"
   id="svg1"
   inkscape:version="1.4.2 (ebf0e940, 2025-05-08)"
   sodipodi:docname="PathogenAs.svg"
   xml:space="preserve"
   inkscape:export-filename="PathogenAs.pdf"
   inkscape:export-xdpi="96"
   inkscape:export-ydpi="96"
   xmlns:inkscape="http://www.inkscape.org/namespaces/inkscape"
   xmlns:sodipodi="http://sodipodi.sourceforge.net/DTD/sodipodi-0.dtd"
   xmlns="http://www.w3.org/2000/svg"
   xmlns:svg="http://www.w3.org/2000/svg"><sodipodi:namedview
     id="namedview1"
     pagecolor="#ffffff"
     bordercolor="#000000"
     borderopacity="0.25"
     inkscape:showpageshadow="2"
     inkscape:pageopacity="0.0"
     inkscape:pagecheckerboard="0"
     inkscape:deskcolor="#d1d1d1"
     inkscape:document-units="in"
     inkscape:zoom="1.7028976"
     inkscape:cx="155.02987"
     inkscape:cy="82.506427"
     inkscape:window-width="1440"
     inkscape:window-height="872"
     inkscape:window-x="0"
     inkscape:window-y="0"
     inkscape:window-maximized="0"
     inkscape:current-layer="layer1" /><defs
     id="defs1" /><g
     inkscape:label="Layer 1"
     inkscape:groupmode="layer"
     id="layer1"><path
       id="path1"
       d="m 11.880128,32.008647 0.01447,-0.03277 0.0149,-0.04823 0.01447,-0.05589 0.01433,-0.06214 0.01447,-0.06639 0.0149,-0.07051 0.0288,-0.148391 0.01447,-0.0776 0.0149,-0.07987 0.0288,-0.163997 0.05831,-0.341896 0.0149,-0.08753 0.01447,-0.0881 0.0288,-0.1779 0.05817,-0.358637 0.11633,-0.719259 0.01504,-0.08923 0.01433,-0.08867 0.02937,-0.177332 0.05817,-0.349699 0.116472,-0.677693 0.23266,-1.245723 0.01561,-0.07874 0.01603,-0.0776 0.03164,-0.152932 0.06313,-0.297067 0.126403,-0.554695 0.01546,-0.0654 0.01603,-0.0654 0.03107,-0.126828 0.06313,-0.24557 0.126402,-0.451558 0.01603,-0.0532 0.01561,-0.05221 0.03149,-0.101859 0.06327,-0.195066 0.01546,-0.04667 0.01603,-0.04596 0.03164,-0.09023 0.06313,-0.170806 0.01561,-0.041 0.01603,-0.04043 0.03164,-0.07817 0.06313,-0.148392 0.125835,-0.26387 0.0149,-0.02823 0.01504,-0.0271 0.02937,-0.0532 0.05873,-0.100299 0.0149,-0.02341 0.01447,-0.02327 0.02937,-0.04483 0.0593,-0.08313 0.01433,-0.01944 0.01504,-0.01873 0.02937,-0.0366 0.0149,-0.01773 0.01447,-0.01716 0.02937,-0.03277 0.0149,-0.01546 0.01504,-0.01504 0.02937,-0.0288 0.05873,-0.05263 0.0149,-0.0122 0.01447,-0.01163 0.02993,-0.02156 0.01433,-0.01007 0.01504,-0.0099 0.02937,-0.0183 0.01433,-0.0088 0.01504,-0.0084 0.02937,-0.0149 0.0149,-0.0072 0.01447,-0.0061 0.02993,-0.0122 0.01433,-0.0055 0.01504,-0.005 0.01433,-0.0044 0.01504,-0.0045 0.0149,-0.0038 0.01447,-0.0038 0.0149,-0.0028 0.01447,-0.0033 0.0149,-0.0023 0.01447,-0.0023 0.02993,-0.0033 0.01447,-0.0011 0.0149,-5.67e-4 0.01447,-5.68e-4 h 0.02937 l 0.01433,5.68e-4 0.04327,0.0034 0.01433,0.0016 0.01447,0.0023 0.0149,0.0023 0.02894,0.0055 0.0288,0.0067 0.0288,0.0077 0.0288,0.0089 0.0288,0.0099 0.04327,0.0166 0.01433,0.0061 0.02937,0.01277 0.05774,0.0288 0.0576,0.03277 0.0288,0.01773 0.0288,0.0183 0.05816,0.0393 0.115337,0.08867 0.01433,0.01163 0.01447,0.0122 0.0288,0.02497 0.05816,0.05093 0.115337,0.110797 0.01603,0.01561 0.01546,0.01603 0.03107,0.03263 0.06256,0.06654 0.125835,0.140163 0.250535,0.305437 0.501495,0.678828 0.936031,1.359358 1.014056,1.404187 0.03107,0.04001 0.03107,0.04043 0.06256,0.07916 0.124133,0.157471 0.248832,0.303593 0.498233,0.565903 0.01433,0.01603 0.01447,0.01546 0.02937,0.03107 0.0576,0.06157 0.11633,0.120728 0.246705,0.246705 0.01433,0.01376 0.02937,0.02823 0.05817,0.05547 0.115905,0.10867 0.232092,0.207691 0.01561,0.0139 0.01603,0.0139 0.03164,0.02653 0.06256,0.05377 0.125835,0.104697 0.252096,0.199037 0.01561,0.0122 0.01603,0.01163 0.03107,0.02383 0.06313,0.0471 0.125835,0.09136 0.252096,0.17407 0.01447,0.0099 0.0149,0.01007 0.02937,0.01929 0.05873,0.0383 0.117465,0.0742 0.235071,0.142433 0.01433,0.0084 0.01504,0.0082 0.02937,0.01717 0.05873,0.03334 0.117465,0.0654 0.23493,0.123565 0.0288,0.01433 0.0288,0.01504 0.05774,0.02823 0.115195,0.05547 0.230532,0.105832 0.01447,0.0061 0.01433,0.0067 0.0288,0.0122 0.05774,0.02483 0.115195,0.04823 0.230532,0.0915 0.03107,0.0122 0.03107,0.01163 0.06256,0.02327 0.125268,0.04483 0.249825,0.08484 0.0156,0.0055 0.01546,0.005 0.03164,0.0099 0.06256,0.02 0.1247,0.03816 0.249967,0.07207 0.0149,0.004 0.01447,0.0044 0.02937,0.0078 0.05817,0.01546 0.11633,0.0305 0.233369,0.0576 0.0149,0.0034 0.01447,0.0038 0.02937,0.0067 0.05817,0.01319 0.116472,0.0261 0.233227,0.04937 0.0322,0.0067 0.221027,0.04256 0.252663,0.04497 0.01617,0.0027 0.01546,0.0028 0.03164,0.005 0.06313,0.0105 0.12697,0.02 0.252663,0.03816 0.03107,0.0045 0.03093,0.0038 0.06214,0.0088 0.124133,0.01674 0.248265,0.03093 0.01546,0.0017 0.01561,0.0023 0.03093,0.0033 0.06214,0.0072 0.124132,0.0139 0.248265,0.02596 0.0288,0.0034 0.0288,0.0027 0.05816,0.0055 0.115904,0.01107 0.231525,0.02057 0.02894,0.0023 0.0288,0.0027 0.0576,0.0044 0.115762,0.0095 0.231667,0.01716 0.0156,0.0011 0.01603,9.93e-4 0.03107,0.0023 0.06313,0.0044 0.125267,0.0084 0.250961,0.01603 0.01617,5.68e-4 0.01546,0.0011 0.03164,0.0017 0.06256,0.0038 0.125835,0.0072 0.25096,0.01277 0.01447,5.68e-4 0.0149,9.93e-4 0.02937,0.0011 0.05817,0.0028 0.117607,0.0055 0.234362,0.0105 0.01433,5.67e-4 0.01504,5.68e-4 0.0288,0.0011 0.176197,0.0065 0.234504,0.0089 0.01546,5.68e-4 0.01603,5.67e-4 0.03164,0.0011 0.0637,0.0021 0.380768,0.01163 0.03206,0.0011 0.03164,5.67e-4 0.06313,0.0023 0.127537,0.0033 0.253798,0.0061 0.01546,5.68e-4 h 0.01546 l 0.03107,0.0011 0.06271,0.0011 0.373958,0.0082 h 0.01561 l 0.01546,5.67e-4 0.03107,5.68e-4 0.06256,0.0011 0.3741,0.0067 h 0.01447 l 0.01433,4.26e-4 h 0.02937 l 0.05817,0.0011 0.116472,0.0017 0.232092,0.0033 0.01504,5.68e-4 h 0.01433 l 0.0288,5.67e-4 0.05831,5.68e-4 0.11633,0.0017 0.232802,0.0027 h 0.03149 l 0.03164,5.68e-4 0.06313,5.67e-4 0.125835,0.0011 0.252096,0.0028 h 0.03164 l 0.03164,5.67e-4 0.06313,4.26e-4 0.125835,0.0011 0.252663,0.0023 h 0.05873 l 0.176197,0.0017 0.235497,9.93e-4 0.01504,5.67e-4 h 0.04426 l 0.05873,5.68e-4 0.117465,5.67e-4 0.235639,0.0011 0.01433,5.68e-4 h 0.101434 l 0.345868,0.0017 0.0149,4.26e-4 h 0.100867 l 0.115195,5.67e-4 0.231099,0.0011 h 0.06271 l 0.06256,5.68e-4 h 0.125267 l 0.250535,0.0011 h 0.125126 l 0.1247,5.68e-4 0.250535,5.67e-4 h 0.05873 l 0.05817,5.68e-4 h 0.116898 l 0.233936,4.25e-4 h 0.116898 l 0.116897,5.68e-4 0.233369,5.67e-4 h 0.253798 l 0.25323,5.68e-4 h 0.12615 l 0.126828,5.67e-4 h 0.377363 l 0.1247,5.68e-4 h 0.497097 l 0.248833,5.67e-4 h 0.579664 l 0.116329,5.68e-4 h 0.986393 l 0.25167,5.67e-4 h 2.608912 l 0.249967,5.68e-4 h 14.540674"
       style="fill:#7570b3;fill-opacity:0.2;stroke:#7570b3;stroke-width:0.5;stroke-linecap:square;stroke-linejoin:miter;stroke-miterlimit:3.25;stroke-dasharray:none;stroke-opacity:1" /><path
       id="path2"
       d="m 11.880128,32.008647 0.01447,-0.01107 0.0149,-0.01731 0.01447,-0.021 0.01433,-0.0244 0.01447,-0.02596 0.0149,-0.02894 0.0288,-0.06143 0.01447,-0.03334 0.0149,-0.03433 0.0288,-0.07249 0.05831,-0.156336 0.0149,-0.041 0.01447,-0.04213 0.0288,-0.0854 0.05817,-0.178325 0.11633,-0.379633 0.01504,-0.0488 0.01433,-0.04937 0.02937,-0.09973 0.05817,-0.202159 0.116472,-0.414532 0.23266,-0.849634 0.01561,-0.0576 0.01603,-0.05816 0.03164,-0.11633 0.06313,-0.231667 0.126403,-0.462766 0.252095,-0.910495 0.01603,-0.05589 0.01561,-0.05604 0.03149,-0.111365 0.06327,-0.220601 0.126261,-0.43496 0.252237,-0.837292 0.0149,-0.04767 0.01504,-0.0471 0.02937,-0.0942 0.05873,-0.18627 0.118032,-0.364028 0.235497,-0.693865 0.0149,-0.04213 0.01447,-0.04157 0.02993,-0.08257 0.05873,-0.163429 0.118033,-0.317638 0.235497,-0.598389 0.01447,-0.03547 0.01433,-0.0349 0.0288,-0.06937 0.05817,-0.136333 0.115337,-0.264296 0.2311,-0.49426 0.01433,-0.02937 0.01447,-0.0288 0.0288,-0.05831 0.05816,-0.113493 0.115337,-0.218899 0.231099,-0.404601 0.01603,-0.02596 0.01546,-0.02554 0.03107,-0.0505 0.06256,-0.09916 0.125835,-0.188965 0.01561,-0.02327 0.01546,-0.02213 0.03164,-0.04497 0.06256,-0.08696 0.125268,-0.164564 0.01546,-0.02 0.01603,-0.01929 0.03107,-0.03887 0.0627,-0.07533 0.125126,-0.141866 0.251102,-0.251102 0.01447,-0.01319 0.0149,-0.01333 0.0288,-0.0261 0.05873,-0.04979 0.116897,-0.09363 0.01447,-0.01121 0.0149,-0.01107 0.02937,-0.02156 0.05831,-0.041 0.116898,-0.07703 0.0149,-0.0089 0.01447,-0.0088 0.02937,-0.01717 0.05817,-0.03334 0.01504,-0.0077 0.01433,-0.0084 0.02937,-0.0149 0.0732,-0.0366 0.01433,-0.0067 0.02937,-0.01334 0.05873,-0.02539 0.02894,-0.0122 0.02937,-0.01106 0.05873,-0.02171 0.01546,-0.0055 0.01603,-0.0055 0.03164,-0.0105 0.0637,-0.01944 0.01561,-0.0044 0.01603,-0.0044 0.03149,-0.0084 0.06327,-0.01489 0.01603,-0.004 0.01603,-0.0033 0.03164,-0.0061 0.01546,-0.0034 0.01617,-0.0027 0.03149,-0.0055 0.01617,-0.0023 0.01546,-0.0021 0.0322,-0.0045 0.01546,-0.0021 0.01603,-0.0023 0.03164,-0.0033 0.01546,-0.0017 0.01603,-0.0011 0.01617,-0.0017 0.01546,-9.93e-4 0.01603,-0.0011 0.01561,-0.0011 0.01603,-0.0011 0.01603,-5.67e-4 0.01561,-5.68e-4 0.01603,-5.67e-4 0.01546,-5.68e-4 0.01617,-4.25e-4 h 0.07916 l 0.01617,4.25e-4 0.01546,5.68e-4 0.01603,5.67e-4 0.01561,5.68e-4 0.03206,0.0011 0.0156,0.0011 0.01603,0.0011 0.01546,9.93e-4 0.01603,0.0011 0.01617,0.0017 0.01546,0.0011 0.01603,0.0017 0.03164,0.0033 0.01546,0.0017 0.01561,0.0021 0.03107,0.004 0.03093,0.0044 0.03164,0.005 0.01546,0.0028 0.01561,0.0021 0.03093,0.0055 0.06214,0.0122 0.03107,0.0067 0.03149,0.0072 0.06214,0.0149 0.124132,0.03391 0.01603,0.005 0.0156,0.0044 0.03093,0.0094 0.06214,0.02057 0.1247,0.04384 0.01546,0.0061 0.01546,0.0055 0.03107,0.0122 0.06214,0.02483 0.1247,0.0532 0.0288,0.01334 0.02937,0.01333 0.0576,0.0271 0.11633,0.05717 0.232235,0.124133 0.0288,0.0166 0.02937,0.0166 0.05817,0.03376 0.115905,0.0698 0.232092,0.147966 0.01561,0.01064 0.01603,0.0105 0.03164,0.021 0.06256,0.0427 0.125835,0.08696 0.252096,0.182865 0.503765,0.391833 0.939861,0.801825 0.922127,0.835164 0.999728,0.92156 0.933193,0.845095 1.011929,0.879425 0.99306,0.811331 0.925958,0.702094 1.004693,0.69883 0.937733,0.591297 1.015759,0.5764 0.997458,0.503766 0.930498,0.41666 1.009091,0.399494 0.941563,0.327 0.923688,0.282029 1.001431,0.267134 0.934895,0.21677 1.013489,0.202727 0.994763,0.171232 0.92766,0.138035 1.006396,0.12853 0.939293,0.102569 0.920425,0.0864 0.999161,0.08086 0.932058,0.06384 1.010794,0.0593 0.943833,0.04653 0.924823,0.0393 1.0037,0.03603 0.936456,0.02823 1.014624,0.02667 0.996465,0.021 0.92993,0.01717 1.007389,0.01561 0.940996,0.0122 0.922695,0.0099 1.000863,0.0088 0.01433,5.68e-4 h 0.04384 l 0.05817,5.67e-4 0.116897,0.0011 0.233369,0.0017 0.467164,0.0038 h 0.06483 l 0.0654,5.67e-4 0.130233,0.0011 0.260321,0.0017 h 0.0328 l 0.0326,4.25e-4 h 0.0648 l 0.1308,0.0011 h 0.0322 l 0.0326,5.68e-4 h 0.0816 l 0.016,5.67e-4 h 0.0814 l 0.0166,5.68e-4"
       style="fill:#d95f02;fill-opacity:0.2;stroke:#d95f02;stroke-width:0.5;stroke-linecap:square;stroke-linejoin:miter;stroke-miterlimit:3.25;stroke-dasharray:none;stroke-opacity:1" /><path
       id="path3"
       d="m 11.880128,32.008647 h 2.442219 l 0.02993,-5.68e-4 h 0.29423 l 0.0149,-5.67e-4 h 0.160733 l 0.01447,-5.68e-4 h 0.101434 l 0.0576,-5.67e-4 h 0.0288 l 0.0288,-5.68e-4 h 0.0288 l 0.02937,-5.67e-4 h 0.05774 l 0.0576,-5.68e-4 0.01433,-5.67e-4 h 0.01447 l 0.0288,-5.68e-4 h 0.02937 l 0.0288,-4.25e-4 h 0.01447 l 0.01433,-5.68e-4 h 0.0288 l 0.05774,-0.0011 h 0.01433 l 0.01447,-5.67e-4 0.0288,-5.67e-4 0.05816,-0.0011 h 0.01447 l 0.01433,-5.68e-4 0.0288,-5.67e-4 0.05774,-0.0016 h 0.01603 l 0.04653,-0.0017 0.06256,-0.0017 0.01617,-5.67e-4 0.01546,-5.68e-4 0.03164,-9.93e-4 0.06256,-0.0023 0.03107,-0.0011 0.03164,-0.0016 0.06256,-0.0028 0.01546,-5.68e-4 0.01561,-0.0011 0.03149,-0.0016 0.06271,-0.0034 0.01546,-0.0011 0.01603,-5.67e-4 0.03107,-0.0021 0.0627,-0.0045 0.01603,-9.93e-4 0.04653,-0.0034 0.06256,-0.005 0.01617,-0.0011 0.01546,-0.0016 0.03164,-0.0028 0.06256,-0.0061 0.125267,-0.01334 0.01447,-0.0016 0.0149,-0.0017 0.0288,-0.0038 0.05873,-0.0078 0.01447,-0.0017 0.0149,-0.0021 0.02937,-0.004 0.05816,-0.0088 0.01447,-0.0028 0.0149,-0.0023 0.02937,-0.0044 0.05831,-0.0105 0.116898,-0.02213 0.0149,-0.0034 0.01447,-0.0027 0.02937,-0.0061 0.05817,-0.01334 0.01504,-0.0033 0.01433,-0.0034 0.02937,-0.0072 0.05873,-0.0149 0.0288,-0.0078 0.0881,-0.02483 0.11704,-0.0366 0.01546,-0.005 0.01603,-0.0057 0.03164,-0.0105 0.0637,-0.02327 0.126402,-0.04979 0.03206,-0.01334 0.03164,-0.0139 0.06313,-0.0288 0.12697,-0.06199 0.01546,-0.0084 0.01603,-0.0084 0.03164,-0.01717 0.0637,-0.0349 0.126402,-0.07647 0.01603,-0.0099 0.01617,-0.0105 0.03149,-0.02057 0.06327,-0.04327 0.126828,-0.09193 0.01546,-0.01163 0.04667,-0.0366 0.06256,-0.05036 0.124133,-0.107534 0.01546,-0.01447 0.01561,-0.01376 0.03149,-0.02894 0.06214,-0.05973 0.124132,-0.125835 0.01603,-0.0166 0.04653,-0.04994 0.06214,-0.06923 0.1247,-0.146263 0.248833,-0.324306 0.01433,-0.01986 0.01447,-0.02057 0.02937,-0.041 0.0576,-0.08427 0.11633,-0.176197 0.232235,-0.382328 0.0288,-0.05093 0.02937,-0.05107 0.05817,-0.104697 0.115905,-0.217196 0.232092,-0.466029 0.01561,-0.03334 0.01603,-0.0332 0.03164,-0.0671 0.06256,-0.1369 0.125835,-0.283164 0.252096,-0.603497 0.503765,-1.352691 0.01447,-0.04213 0.0149,-0.0427 0.02937,-0.08526 0.05873,-0.172366 0.117465,-0.352395 0.235071,-0.732595 0.46986,-1.566056 0.922127,-3.368319 0.999728,-3.846407 0.933193,-3.455141 0.0322,-0.110939 0.03149,-0.110797 0.06327,-0.220034 0.126261,-0.433258 0.252663,-0.838426 0.01617,-0.05107 0.01546,-0.05093 0.03164,-0.101434 0.06313,-0.201165 0.12697,-0.3933937 0.252663,-0.753166 0.062,-0.177332 0.06214,-0.174069 0.124133,-0.339627 0.248265,-0.641233 0.03107,-0.07647 0.03093,-0.0759 0.06214,-0.148533 0.124132,-0.2869948 0.248265,-0.5325641 0.01433,-0.028799 0.01447,-0.029366 0.0288,-0.057739 0.05816,-0.1123577 0.115904,-0.2162034 0.0288,-0.052065 0.0288,-0.051497 0.05817,-0.099873 0.115763,-0.1905257 0.02894,-0.045539 0.0288,-0.04483 0.0576,-0.086964 0.115762,-0.1641387 0.01447,-0.019861 0.01489,-0.019436 0.02894,-0.038162 0.0576,-0.07377 0.115762,-0.1380354 0.0156,-0.017733 0.01603,-0.017733 0.03107,-0.033764 0.06313,-0.065968 0.03107,-0.030927 0.03149,-0.030501 0.0627,-0.057739 0.01603,-0.013761 0.01546,-0.013335 0.03164,-0.026529 0.06256,-0.049937 0.0156,-0.012201 0.01603,-0.011633 0.03107,-0.022699 0.06256,-0.042134 0.01617,-0.00993 0.01546,-0.010072 0.03164,-0.018301 0.01546,-0.00936 0.01546,-0.0088 0.03164,-0.01674 0.01546,-0.00823 0.01617,-0.0078 0.03093,-0.014896 0.06327,-0.027238 0.03093,-0.0122 0.03164,-0.011065 0.01546,-0.00497 0.01617,-0.00497 0.03107,-0.0095 0.01603,-0.0044 0.03107,-0.0078 0.01603,-0.00383 0.01546,-0.00326 0.0156,-0.00284 0.03149,-0.00553 0.01447,-0.0027 0.0149,-0.0017 0.01447,-0.00227 0.0149,-0.0017 0.01447,-0.00156 0.01433,-0.00114 0.01504,-0.00113 0.01433,-5.674e-4 0.01504,-0.00113 0.01433,-4.256e-4 h 0.05887 l 0.01433,4.256e-4 0.01504,5.675e-4 0.01433,0.00113 0.01504,0.00113 0.01433,0.00114 0.01504,0.00156 0.0288,0.0034 0.0149,0.00227 0.01447,0.00213 0.0149,0.00227 0.01447,0.0027 0.0149,0.00284 0.0288,0.00667 0.01504,0.00326 0.02937,0.00724 0.01433,0.00383 0.01504,0.00454 0.0288,0.0088 0.01504,0.0044 0.01433,0.00497 0.02937,0.01064 0.01504,0.00553 0.01433,0.00553 0.02937,0.011633 0.05873,0.025961 0.01447,0.00724 0.0149,0.00724 0.0288,0.01447 0.05873,0.032062 0.117607,0.072068 0.01546,0.010498 0.01603,0.011066 0.03164,0.022273 0.0637,0.047099 0.12697,0.1041295 0.01603,0.013903 0.01546,0.013761 0.0322,0.028799 0.06313,0.059867 0.12697,0.1286723 0.03206,0.034332 0.03164,0.034331 0.06313,0.072068 0.127537,0.1523639 0.253798,0.3374986 0.01546,0.021564 0.01546,0.022699 0.03107,0.044971 0.06271,0.091362 0.1247,0.191235 0.249258,0.408999 0.4988,0.9175874 0.01447,0.02837 0.01433,0.0288 0.02937,0.0576 0.05817,0.11633 0.116472,0.236632 0.232092,0.49043 0.465604,1.036897 1.009091,2.4321457 0.941563,2.374124 0.923688,2.310284 1.001431,2.389587 0.934895,2.055919 1.013489,1.996619 0.994763,1.706361 0.92766,1.364891 0.01603,0.02156 0.0156,0.021 0.0315,0.04213 0.0627,0.08427 0.125693,0.164564 0.25167,0.318631 0.503198,0.592999 0.01433,0.01603 0.01504,0.0166 0.02937,0.03277 0.05873,0.06483 0.117465,0.126828 0.234362,0.246138 0.470001,0.456665 0.0576,0.0532 0.05703,0.05206 0.115337,0.102994 0.229964,0.197903 0.460496,0.366865 0.01561,0.0122 0.01603,0.01163 0.03107,0.02326 0.06256,0.04596 0.1247,0.09094 0.249967,0.17336 0.499226,0.31863 0.01447,0.0084 0.0149,0.0089 0.0288,0.01717 0.05817,0.03433 0.117039,0.06696 0.23266,0.128672 0.01447,0.0077 0.0149,0.0078 0.0288,0.01546 0.05831,0.0305 0.116897,0.05987 0.23266,0.11477 0.01617,0.0077 0.01546,0.0072 0.03164,0.01504 0.06313,0.02937 0.126402,0.0576 0.252663,0.109663 0.01603,0.0067 0.0156,0.0067 0.03149,0.01334 0.189533,0.07647 0.252663,0.0959 0.01447,0.0055 0.01504,0.0055 0.02937,0.0105 0.05916,0.02156 0.118174,0.04157 0.235497,0.0793 0.0149,0.0044 0.01447,0.005 0.02993,0.0095 0.05873,0.01887 0.118032,0.03646 0.236065,0.06994 0.01433,0.0038 0.01447,0.0044 0.0288,0.0084 0.0576,0.01603 0.115904,0.03164 0.231099,0.06043 0.01433,0.0033 0.01447,0.0038 0.02937,0.0072 0.0576,0.0139 0.115762,0.02823 0.2311,0.05263 0.0156,0.0034 0.01603,0.0038 0.03107,0.0067 0.06256,0.01376 0.125835,0.0261 0.250535,0.04994 0.01603,0.0033 0.01546,0.0028 0.03164,0.006 0.06256,0.01178 0.125268,0.0227 0.251102,0.04369 0.01433,0.0023 0.01504,0.0023 0.0288,0.005 0.05873,0.0094 0.116898,0.01887 0.234362,0.0349 0.01447,0.0023 0.0149,0.0021 0.02894,0.004 0.05873,0.0082 0.116898,0.01603 0.234362,0.0305 0.01561,0.0023 0.01603,0.0023 0.03149,0.0038 0.06384,0.0078 0.126828,0.0149 0.253798,0.0288 0.0156,0.0017 0.01603,0.0017 0.09477,0.0099 0.126828,0.01277 0.253798,0.02497 0.0156,9.93e-4 0.01546,0.0017 0.03164,0.0028 0.06199,0.0055 0.1247,0.01107 0.248833,0.02043 0.03107,0.0023 0.03164,0.0028 0.062,0.0044 0.1247,0.0094 0.248832,0.01773 0.01433,0.0011 0.01504,0.0011 0.0288,0.0017 0.174637,0.01163 0.232092,0.01376 0.01447,0.0011 0.01433,5.67e-4 0.02937,0.0017 0.05831,0.0033 0.115762,0.0067 0.232802,0.0122 0.01546,5.67e-4 0.01546,0.0011 0.03164,0.0016 0.06313,0.0028 0.125835,0.0061 0.252096,0.01163 0.0156,5.68e-4 0.01603,5.67e-4 0.03164,9.93e-4 0.06256,0.0028 0.126402,0.005 0.251528,0.0099 0.01504,5.68e-4 h 0.01433 l 0.0881,0.0034 0.118032,0.0038 0.235072,0.0078 0.0149,5.67e-4 0.01447,5.67e-4 0.02937,9.94e-4 0.05873,0.0017 0.118032,0.0034 0.23493,0.0065 h 0.01447 l 0.01433,5.67e-4 0.0288,5.67e-4 0.0576,0.0017 0.345868,0.0084 0.01447,5.67e-4 h 0.01433 l 0.0288,9.93e-4 0.172934,0.0034 0.2311,0.005 h 0.01546 l 0.01561,5.67e-4 0.03093,5.67e-4 0.438365,0.0077 0.01561,5.68e-4 h 0.01546 l 0.03107,5.67e-4 0.06256,0.0011 0.125268,0.0017 0.250535,0.0038 h 0.0288 l 0.02937,5.67e-4 0.05817,0.0011 0.116897,0.0011 0.233369,0.0033 h 0.02937 l 0.0288,5.68e-4 0.05873,5.67e-4 0.11633,0.0011 0.233936,0.0027 h 0.03206 l 0.03277,5.68e-4 0.0654,5.67e-4 0.390556,0.0034 h 0.0167 l 0.016,4.26e-4 h 0.0326 l 0.0648,5.67e-4 0.1308,0.0011 h 0.0322 l 0.0326,5.68e-4 0.0654,5.67e-4 h 0.0322 l 0.0326,5.67e-4 h 0.0654"
       style="fill:#1b9e77;fill-opacity:0.2;fill-rule:nonzero;stroke:#1b9e77;stroke-width:0.5;stroke-linecap:square;stroke-linejoin:miter;stroke-miterlimit:3.25;stroke-dasharray:none;stroke-opacity:1" /><path
       id="path4"
       d="M 11.880128,32.008647 V 31.441184"
       style="fill:none;stroke:#666666;stroke-width:0.0283732;stroke-linecap:butt;stroke-linejoin:miter;stroke-miterlimit:3.25;stroke-dasharray:none;stroke-opacity:1" /><path
       id="path9"
       d="M 19.789712,32.008647 V 31.441184"
       style="fill:none;stroke:#666666;stroke-width:0.0283732;stroke-linecap:butt;stroke-linejoin:miter;stroke-miterlimit:3.25;stroke-dasharray:none;stroke-opacity:1" /><path
       id="path14"
       d="M 27.699864,32.008647 V 31.441184"
       style="fill:none;stroke:#666666;stroke-width:0.0283732;stroke-linecap:butt;stroke-linejoin:miter;stroke-miterlimit:3.25;stroke-dasharray:none;stroke-opacity:1" /><path
       id="path19"
       d="M 35.609448,32.008647 V 31.441184"
       style="fill:none;stroke:#666666;stroke-width:0.0283732;stroke-linecap:butt;stroke-linejoin:miter;stroke-miterlimit:3.25;stroke-dasharray:none;stroke-opacity:1" /><path
       id="path24"
       d="M 43.519032,32.008647 V 31.441184"
       style="fill:none;stroke:#666666;stroke-width:0.0283732;stroke-linecap:butt;stroke-linejoin:miter;stroke-miterlimit:3.25;stroke-dasharray:none;stroke-opacity:1" /><path
       id="path29"
       d="M 51.429042,32.008647 V 31.441184"
       style="fill:none;stroke:#666666;stroke-width:0.0283732;stroke-linecap:butt;stroke-linejoin:miter;stroke-miterlimit:3.25;stroke-dasharray:none;stroke-opacity:1" /><path
       id="path34"
       d="M 59.338626,32.008647 V 31.441184"
       style="fill:none;stroke:#666666;stroke-width:0.0283732;stroke-linecap:butt;stroke-linejoin:miter;stroke-miterlimit:3.25;stroke-dasharray:none;stroke-opacity:1" /><path
       id="path35"
       d="m 10.891466,32.008647 h 49.43582"
       style="fill:none;stroke:#666666;stroke-width:0.0283732;stroke-linecap:butt;stroke-linejoin:miter;stroke-miterlimit:3.25;stroke-dasharray:none;stroke-opacity:1" /><path
       id="path37"
       d="m 11.880128,32.008647 h 0.567463"
       style="fill:none;stroke:#666666;stroke-width:0.0283732;stroke-linecap:butt;stroke-linejoin:miter;stroke-miterlimit:3.25;stroke-dasharray:none;stroke-opacity:1" /><path
       id="path41"
       d="m 11.880128,28.005336 h 0.567463"
       style="fill:none;stroke:#666666;stroke-width:0.0283732;stroke-linecap:butt;stroke-linejoin:miter;stroke-miterlimit:3.25;stroke-dasharray:none;stroke-opacity:1" /><path
       id="path45"
       d="m 11.880128,24.002026 h 0.567463"
       style="fill:none;stroke:#666666;stroke-width:0.0283732;stroke-linecap:butt;stroke-linejoin:miter;stroke-miterlimit:3.25;stroke-dasharray:none;stroke-opacity:1" /><path
       id="path49"
       d="m 11.880128,19.998716 h 0.567463"
       style="fill:none;stroke:#666666;stroke-width:0.0283732;stroke-linecap:butt;stroke-linejoin:miter;stroke-miterlimit:3.25;stroke-dasharray:none;stroke-opacity:1" /><path
       id="path53"
       d="m 11.880128,15.99498 h 0.567463"
       style="fill:none;stroke:#666666;stroke-width:0.0283732;stroke-linecap:butt;stroke-linejoin:miter;stroke-miterlimit:3.25;stroke-dasharray:none;stroke-opacity:1" /><path
       id="path57"
       d="m 11.880128,11.99167 h 0.567463"
       style="fill:none;stroke:#666666;stroke-width:0.0283732;stroke-linecap:butt;stroke-linejoin:miter;stroke-miterlimit:3.25;stroke-dasharray:none;stroke-opacity:1" /><path
       id="path61"
       d="m 11.880128,7.9883603 h 0.567463"
       style="fill:none;stroke:#666666;stroke-width:0.0283732;stroke-linecap:butt;stroke-linejoin:miter;stroke-miterlimit:3.25;stroke-dasharray:none;stroke-opacity:1" /><path
       id="path65"
       d="m 11.880128,3.9850502 h 0.567463"
       style="fill:none;stroke:#666666;stroke-width:0.0283732;stroke-linecap:butt;stroke-linejoin:miter;stroke-miterlimit:3.25;stroke-dasharray:none;stroke-opacity:1" /><path
       id="path67"
       d="M 11.880128,33.536399 V 2.9831941"
       style="fill:none;stroke:#666666;stroke-width:0.0283732;stroke-linecap:butt;stroke-linejoin:miter;stroke-miterlimit:3.25;stroke-dasharray:none;stroke-opacity:1" /><text
       id="text2"
       xml:space="preserve"
       x="42.427937"
       y="22.51638"
       style="font-size:2.82222px;stroke-width:0.141866"><tspan
         id="tspan2"
         style="font-style:normal;font-variant:normal;font-weight:normal;font-stretch:normal;font-size:2.82222px;font-family:Palatino;-inkscape-font-specification:Palatino;writing-mode:lr-tb;fill:#7570b3;fill-opacity:1;fill-rule:nonzero;stroke:none;stroke-width:0.141866"
         x="42.427937"
         y="22.51638">Influenza</tspan></text><text
       id="text3"
       xml:space="preserve"
       x="42.41473"
       y="16.34164"
       style="font-size:2.82222px;stroke-width:0.141866"><tspan
         id="tspan3"
         style="font-style:normal;font-variant:normal;font-weight:normal;font-stretch:normal;font-size:2.82222px;font-family:Palatino;-inkscape-font-specification:Palatino;writing-mode:lr-tb;fill:#d95f02;fill-opacity:1;fill-rule:nonzero;stroke:none;stroke-width:0.141866"
         x="42.41473"
         y="16.34164">SARS-CoV-2</tspan></text><text
       id="text4"
       xml:space="preserve"
       x="42.656391"
       y="4.4832745"
       style="font-size:2.82222px;stroke-width:0.141866"><tspan
         id="tspan4"
         style="font-style:normal;font-variant:normal;font-weight:normal;font-stretch:normal;font-size:2.82222px;font-family:Palatino;-inkscape-font-specification:Palatino;writing-mode:lr-tb;fill:#1b9e77;fill-opacity:1;fill-rule:nonzero;stroke:none;stroke-width:0.141866"
         x="42.656391"
         y="4.4832745">Measles</tspan></text><text
       id="text5"
       xml:space="preserve"
       x="42.421612"
       y="18.926487"
       style="font-size:2.82222px;stroke-width:0.141866"><tspan
         id="tspan5"
         style="font-style:normal;font-variant:normal;font-weight:normal;font-stretch:normal;font-size:2.82222px;font-family:Palatino;-inkscape-font-specification:Palatino;writing-mode:lr-tb;fill:#d95f02;fill-opacity:1;fill-rule:nonzero;stroke:none;stroke-width:0.141866"
         x="42.421612"
         y="18.926487">omicron</tspan></text><text
       id="text6"
       xml:space="preserve"
       x="7.9780192"
       y="28.958939"
       style="font-size:2.82222px;stroke-width:0.141866"><tspan
         id="tspan6"
         style="font-style:normal;font-variant:normal;font-weight:normal;font-stretch:normal;font-size:2.82222px;font-family:Palatino;-inkscape-font-specification:Palatino;writing-mode:lr-tb;fill:#000000;fill-opacity:1;fill-rule:nonzero;stroke:none;stroke-width:0.141866"
         x="7.9780192"
         y="28.958939">0.2</tspan></text><text
       id="text7"
       xml:space="preserve"
       x="7.9601054"
       y="24.959763"
       style="font-size:2.82222px;stroke-width:0.141866"><tspan
         id="tspan7"
         style="font-style:normal;font-variant:normal;font-weight:normal;font-stretch:normal;font-size:2.82222px;font-family:Palatino;-inkscape-font-specification:Palatino;writing-mode:lr-tb;fill:#000000;fill-opacity:1;fill-rule:nonzero;stroke:none;stroke-width:0.141866"
         x="7.9601054"
         y="24.959763">0.4</tspan></text><text
       id="text8"
       xml:space="preserve"
       x="7.9780192"
       y="20.959208"
       style="font-size:2.82222px;stroke-width:0.141866"><tspan
         id="tspan8"
         style="font-style:normal;font-variant:normal;font-weight:normal;font-stretch:normal;font-size:2.82222px;font-family:Palatino;-inkscape-font-specification:Palatino;writing-mode:lr-tb;fill:#000000;fill-opacity:1;fill-rule:nonzero;stroke:none;stroke-width:0.141866"
         x="7.9780192"
         y="20.959208">0.6</tspan></text><text
       id="text10"
       xml:space="preserve"
       x="7.9876666"
       y="16.948582"
       style="font-size:2.82222px;stroke-width:0.141866"><tspan
         id="tspan10"
         style="font-style:normal;font-variant:normal;font-weight:normal;font-stretch:normal;font-size:2.82222px;font-family:Palatino;-inkscape-font-specification:Palatino;writing-mode:lr-tb;fill:#000000;fill-opacity:1;fill-rule:nonzero;stroke:none;stroke-width:0.141866"
         x="7.9876666"
         y="16.948582">0.8</tspan></text><text
       id="text11"
       xml:space="preserve"
       x="7.9849086"
       y="12.952851"
       style="font-size:2.82222px;stroke-width:0.141866"><tspan
         id="tspan11"
         style="font-style:normal;font-variant:normal;font-weight:normal;font-stretch:normal;font-size:2.82222px;font-family:Palatino;-inkscape-font-specification:Palatino;writing-mode:lr-tb;fill:#000000;fill-opacity:1;fill-rule:nonzero;stroke:none;stroke-width:0.141866"
         x="7.9849086"
         y="12.952851">1.0</tspan></text><text
       id="text12"
       xml:space="preserve"
       x="7.9780192"
       y="8.9646997"
       style="font-size:2.82222px;stroke-width:0.141866"><tspan
         id="tspan12"
         style="font-style:normal;font-variant:normal;font-weight:normal;font-stretch:normal;font-size:2.82222px;font-family:Palatino;-inkscape-font-specification:Palatino;writing-mode:lr-tb;fill:#000000;fill-opacity:1;fill-rule:nonzero;stroke:none;stroke-width:0.141866"
         x="7.9780192"
         y="8.9646997">1.2</tspan></text><text
       id="text13"
       xml:space="preserve"
       x="7.9601054"
       y="4.9613895"
       style="font-size:2.82222px;stroke-width:0.141866"><tspan
         id="tspan13"
         style="font-style:normal;font-variant:normal;font-weight:normal;font-stretch:normal;font-size:2.82222px;font-family:Palatino;-inkscape-font-specification:Palatino;writing-mode:lr-tb;fill:#000000;fill-opacity:1;fill-rule:nonzero;stroke:none;stroke-width:0.141866"
         x="7.9601054"
         y="4.9613895">1.4</tspan></text><text
       id="text15"
       xml:space="preserve"
       x="19.120674"
       y="34.459309"
       style="font-size:2.82222px;stroke-width:0.141866"><tspan
         id="tspan15"
         style="font-style:normal;font-variant:normal;font-weight:normal;font-stretch:normal;font-size:2.82222px;font-family:Palatino;-inkscape-font-specification:Palatino;writing-mode:lr-tb;fill:#000000;fill-opacity:1;fill-rule:nonzero;stroke:none;stroke-width:0.141866"
         x="19.120674"
         y="34.459309">5</tspan></text><text
       id="text16"
       xml:space="preserve"
       x="26.253613"
       y="34.497894"
       style="font-size:2.82222px;stroke-width:0.141866"><tspan
         id="tspan16"
         style="font-style:normal;font-variant:normal;font-weight:normal;font-stretch:normal;font-size:2.82222px;font-family:Palatino;-inkscape-font-specification:Palatino;writing-mode:lr-tb;fill:#000000;fill-opacity:1;fill-rule:nonzero;stroke:none;stroke-width:0.141866"
         x="26.253613"
         y="34.497894">10</tspan></text><text
       id="text17"
       xml:space="preserve"
       x="34.168713"
       y="34.497894"
       style="font-size:2.82222px;stroke-width:0.141866"><tspan
         id="tspan17"
         style="font-style:normal;font-variant:normal;font-weight:normal;font-stretch:normal;font-size:2.82222px;font-family:Palatino;-inkscape-font-specification:Palatino;writing-mode:lr-tb;fill:#000000;fill-opacity:1;fill-rule:nonzero;stroke:none;stroke-width:0.141866"
         x="34.168713"
         y="34.497894">15</tspan></text><text
       id="text18"
       xml:space="preserve"
       x="42.135487"
       y="34.482735"
       style="font-size:2.82222px;stroke-width:0.141866"><tspan
         id="tspan18"
         style="font-style:normal;font-variant:normal;font-weight:normal;font-stretch:normal;font-size:2.82222px;font-family:Palatino;-inkscape-font-specification:Palatino;writing-mode:lr-tb;fill:#000000;fill-opacity:1;fill-rule:nonzero;stroke:none;stroke-width:0.141866"
         x="42.135487"
         y="34.482735">20</tspan></text><text
       id="text20"
       xml:space="preserve"
       x="50.051006"
       y="34.4786"
       style="font-size:2.82222px;stroke-width:0.141866"><tspan
         id="tspan20"
         style="font-style:normal;font-variant:normal;font-weight:normal;font-stretch:normal;font-size:2.82222px;font-family:Palatino;-inkscape-font-specification:Palatino;writing-mode:lr-tb;fill:#000000;fill-opacity:1;fill-rule:nonzero;stroke:none;stroke-width:0.141866"
         x="50.051006"
         y="34.4786">25</tspan></text><text
       id="text21"
       xml:space="preserve"
       x="57.955074"
       y="34.488247"
       style="font-size:2.82222px;stroke-width:0.141866"><tspan
         id="tspan21"
         style="font-style:normal;font-variant:normal;font-weight:normal;font-stretch:normal;font-size:2.82222px;font-family:Palatino;-inkscape-font-specification:Palatino;writing-mode:lr-tb;fill:#000000;fill-opacity:1;fill-rule:nonzero;stroke:none;stroke-width:0.141866"
         x="57.955074"
         y="34.488247">30</tspan></text><text
       id="text22"
       xml:space="preserve"
       x="24.080257"
       y="38.10606"
       style="font-size:3.175px;stroke-width:0.141866"><tspan
         id="tspan22"
         style="font-style:normal;font-variant:normal;font-weight:normal;font-stretch:normal;font-size:3.175px;font-family:Palatino;-inkscape-font-specification:Palatino;writing-mode:lr-tb;fill:#000000;fill-opacity:1;fill-rule:nonzero;stroke:none;stroke-width:0.141866"
         x="24.080257"
         y="38.10606">Days since infection</tspan></text><text
       id="text23"
       xml:space="preserve"
       x="-30.204401"
       y="5.6466174"
       style="font-size:3.175px;stroke-width:0.141866"
       transform="rotate(-90)"><tspan
         id="tspan23"
         style="font-style:normal;font-variant:normal;font-weight:normal;font-stretch:normal;font-size:3.175px;font-family:Palatino;-inkscape-font-specification:Palatino;writing-mode:lr-tb;fill:#000000;fill-opacity:1;fill-rule:nonzero;stroke:none;stroke-width:0.141866"
         x="-30.204401"
         y="5.6466174">Infectiousness (<tspan
   style="font-style:italic"
   id="tspan25">A</tspan>(<tspan
   style="font-style:italic"
   id="tspan24">τ</tspan>))</tspan></text><path
       style="opacity:1;fill:#000000;fill-opacity:0;fill-rule:nonzero;stroke:#1b9e77;stroke-width:0.1;stroke-linejoin:round;stroke-dasharray:0.40000001,0.1;stroke-opacity:1;stroke-dashoffset:0"
       d="M 41.814545,4.4936502 H 29.503392"
       id="path25" /><path
       style="opacity:1;fill:#d95f02;fill-opacity:1;fill-rule:nonzero;stroke:#d95f02;stroke-width:0.1;stroke-linejoin:round;stroke-dasharray:0.40000001,0.1;stroke-opacity:1;stroke-dashoffset:0"
       d="M 41.814546,18.929525 H 17.998634"
       id="path26" /><path
       style="opacity:1;fill:#000000;fill-opacity:0;fill-rule:nonzero;stroke:#7570b3;stroke-width:0.1;stroke-linejoin:round;stroke-dasharray:0.40000001,0.1;stroke-opacity:1;stroke-dashoffset:0"
       d="M 41.814541,22.425093 H 14.692053"
       id="path27" /></g></svg>
